<svg width="68" height="68" viewBox="0 0 68 68" fill="none" xmlns="http://www.w3.org/2000/svg">
<g clip-path="url(#clip0_7_6)">
<circle cx="34" cy="34" r="34" fill="url(#paint0_linear_7_6)"/>
<ellipse cx="8.74011" cy="3.74014" rx="47.5" ry="28.5" transform="rotate(-45 8.74011 3.74014)" fill="url(#paint1_linear_7_6)" style="mix-blend-mode:soft-light"/>
<circle cx="20" cy="16" r="10" fill="white"/>
<path d="M44.652 42.552C44.676 42.696 44.688 42.84 44.688 42.984C44.712 43.104 44.724 43.248 44.724 43.416C44.724 43.704 44.64 43.968 44.472 44.208C44.4 44.328 44.304 44.448 44.184 44.568C44.064 44.664 43.92 44.748 43.752 44.82C43.152 45.156 42.516 45.276 41.844 45.18C41.508 45.084 41.208 44.928 40.944 44.712C40.896 44.664 40.86 44.64 40.836 44.64C40.812 44.616 40.788 44.58 40.764 44.532C40.74 44.508 40.716 44.484 40.692 44.46C40.668 44.412 40.632 44.376 40.584 44.352C40.464 44.232 40.368 44.124 40.296 44.028C40.224 43.908 40.152 43.788 40.08 43.668C40.032 43.548 39.972 43.44 39.9 43.344C39.852 43.224 39.792 43.104 39.72 42.984C39.672 42.888 39.624 42.804 39.576 42.732C39.528 42.636 39.492 42.54 39.468 42.444C39.372 42.228 39.312 42.036 39.288 41.868L38.532 40.104C36.876 40.104 35.22 40.116 33.564 40.14C31.932 40.14 30.288 40.128 28.632 40.104L27.876 41.868C27.828 41.964 27.792 42.06 27.768 42.156C27.768 42.252 27.744 42.348 27.696 42.444C27.648 42.54 27.6 42.636 27.552 42.732C27.528 42.804 27.492 42.888 27.444 42.984C27.372 43.104 27.3 43.224 27.228 43.344C27.18 43.44 27.12 43.548 27.048 43.668C27 43.788 26.94 43.908 26.868 44.028C26.796 44.124 26.7 44.232 26.58 44.352C26.532 44.376 26.496 44.412 26.472 44.46C26.448 44.484 26.424 44.508 26.4 44.532C26.376 44.58 26.352 44.616 26.328 44.64C26.304 44.64 26.268 44.664 26.22 44.712C25.956 44.928 25.656 45.084 25.32 45.18C24.648 45.276 24.012 45.156 23.412 44.82C23.244 44.748 23.1 44.664 22.98 44.568C22.86 44.448 22.764 44.328 22.692 44.208C22.524 43.968 22.44 43.704 22.44 43.416C22.44 43.248 22.44 43.104 22.44 42.984C22.464 42.84 22.488 42.696 22.512 42.552C22.56 42.336 22.62 42.12 22.692 41.904C22.764 41.688 22.8 41.58 22.8 41.58L30.288 23.148L30.504 22.572C30.552 22.428 30.612 22.296 30.684 22.176C30.756 22.056 30.816 21.912 30.864 21.744C30.984 21.432 31.116 21.156 31.26 20.916C31.332 20.772 31.416 20.64 31.512 20.52C31.608 20.4 31.704 20.28 31.8 20.16C31.944 19.968 32.148 19.812 32.412 19.692C32.748 19.572 33.132 19.512 33.564 19.512C34.02 19.512 34.416 19.572 34.752 19.692C35.016 19.812 35.22 19.968 35.364 20.16C35.532 20.376 35.712 20.628 35.904 20.916C36.048 21.156 36.18 21.432 36.3 21.744C36.348 21.912 36.408 22.056 36.48 22.176C36.552 22.296 36.612 22.428 36.66 22.572L36.876 23.148L44.364 41.58C44.364 41.58 44.4 41.688 44.472 41.904C44.544 42.12 44.604 42.336 44.652 42.552ZM36.12 33.732C35.808 33.036 35.484 32.316 35.148 31.572C34.836 30.828 34.5 30.072 34.14 29.304C34.044 29.088 33.948 28.872 33.852 28.656C33.756 28.416 33.66 28.188 33.564 27.972C33.492 28.188 33.408 28.416 33.312 28.656C33.216 28.872 33.12 29.088 33.024 29.304C32.664 30.072 32.316 30.828 31.98 31.572C31.668 32.316 31.356 33.036 31.044 33.732L30.396 35.316H36.768L36.12 33.732Z" fill="white"/>
</g>
<defs>
<linearGradient id="paint0_linear_7_6" x1="3.5" y1="7" x2="64" y2="64.5" gradientUnits="userSpaceOnUse">
<stop stop-color="#2C3855"/>
<stop offset="1" stop-color="#5B43B6"/>
</linearGradient>
<linearGradient id="paint1_linear_7_6" x1="6.97237" y1="7.99675" x2="8.74011" y2="32.2401" gradientUnits="userSpaceOnUse">
<stop stop-color="white"/>
<stop offset="1" stop-color="white" stop-opacity="0.03"/>
</linearGradient>
<clipPath id="clip0_7_6">
<rect width="68" height="68" fill="white"/>
</clipPath>
</defs>
</svg>
