<svg width="1200" height="820" viewBox="0 0 1200 820" fill="none" xmlns="http://www.w3.org/2000/svg">
  <rect width="1200" height="820" rx="64" fill="#FFFFFF"/>
  <rect x="88" y="88" width="1024" height="644" rx="48" fill="#F8FAFC" stroke="#E5E7EB" stroke-width="2"/>
  <rect x="142" y="142" width="916" height="78" rx="34" fill="#FFFFFF" stroke="#E5E7EB"/>
  <rect x="188" y="172" width="312" height="18" rx="9" fill="#CBD5E1"/>
  <rect x="808" y="158" width="196" height="46" rx="23" fill="#111827"/>
  <rect x="142" y="272" width="268" height="360" rx="34" fill="#FFFFFF" stroke="#E5E7EB"/>
  <rect x="466" y="272" width="268" height="360" rx="34" fill="#FFFFFF" stroke="#E5E7EB"/>
  <rect x="790" y="272" width="268" height="360" rx="34" fill="#FFFFFF" stroke="#E5E7EB"/>
  <circle cx="276" cy="390" r="74" fill="#111827"/>
  <circle cx="600" cy="390" r="74" fill="#7C3AED"/>
  <circle cx="924" cy="390" r="74" fill="#06B6D4"/>
  <rect x="188" y="508" width="172" height="18" rx="9" fill="#111827"/>
  <rect x="512" y="508" width="172" height="18" rx="9" fill="#111827"/>
  <rect x="836" y="508" width="172" height="18" rx="9" fill="#111827"/>
  <rect x="188" y="552" width="132" height="14" rx="7" fill="#CBD5E1"/>
  <rect x="512" y="552" width="132" height="14" rx="7" fill="#CBD5E1"/>
  <rect x="836" y="552" width="132" height="14" rx="7" fill="#CBD5E1"/>
</svg>
