<svg width="1200" height="820" viewBox="0 0 1200 820" fill="none" xmlns="http://www.w3.org/2000/svg">
  <rect width="1200" height="820" rx="64" fill="#FFFFFF"/>
  <rect x="80" y="74" width="1040" height="672" rx="52" fill="#FAFAF9" stroke="#E5E7EB" stroke-width="2"/>
  <circle cx="922" cy="236" r="192" fill="#EDE9FE"/>
  <circle cx="968" cy="282" r="116" fill="#CFFAFE"/>
  <rect x="142" y="136" width="390" height="38" rx="19" fill="#111827"/>
  <rect x="142" y="212" width="560" height="76" rx="22" fill="#111827" fill-opacity=".92"/>
  <rect x="142" y="318" width="470" height="22" rx="11" fill="#6B7280" fill-opacity=".35"/>
  <rect x="142" y="362" width="420" height="22" rx="11" fill="#6B7280" fill-opacity=".25"/>
  <rect x="142" y="436" width="196" height="64" rx="32" fill="#111827"/>
  <rect x="362" y="436" width="196" height="64" rx="32" fill="#FFFFFF" stroke="#D1D5DB"/>
  <rect x="682" y="178" width="318" height="420" rx="42" fill="#FFFFFF" stroke="#E5E7EB" stroke-width="2"/>
  <rect x="726" y="226" width="230" height="132" rx="28" fill="#111827"/>
  <rect x="726" y="390" width="108" height="22" rx="11" fill="#7C3AED" fill-opacity=".35"/>
  <rect x="726" y="438" width="230" height="18" rx="9" fill="#CBD5E1"/>
  <rect x="726" y="478" width="188" height="18" rx="9" fill="#E5E7EB"/>
  <rect x="726" y="530" width="150" height="42" rx="21" fill="#F3F4F6"/>
  <rect x="142" y="604" width="278" height="76" rx="26" fill="#FFFFFF" stroke="#E5E7EB"/>
  <rect x="454" y="604" width="278" height="76" rx="26" fill="#FFFFFF" stroke="#E5E7EB"/>
  <rect x="766" y="604" width="278" height="76" rx="26" fill="#FFFFFF" stroke="#E5E7EB"/>
</svg>
