<svg width="1200" height="820" viewBox="0 0 1200 820" fill="none" xmlns="http://www.w3.org/2000/svg">
  <rect width="1200" height="820" rx="64" fill="#FFFFFF"/>
  <rect x="86" y="88" width="1028" height="644" rx="46" fill="#F8FAFC" stroke="#E5E7EB" stroke-width="2"/>
  <rect x="126" y="128" width="214" height="564" rx="32" fill="#111827"/>
  <rect x="382" y="132" width="314" height="154" rx="30" fill="#FFFFFF" stroke="#E5E7EB"/>
  <rect x="724" y="132" width="326" height="154" rx="30" fill="#FFFFFF" stroke="#E5E7EB"/>
  <rect x="382" y="324" width="668" height="330" rx="34" fill="#FFFFFF" stroke="#E5E7EB"/>
  <rect x="424" y="534" width="70" height="78" rx="18" fill="#111827"/>
  <rect x="530" y="486" width="70" height="126" rx="18" fill="#7C3AED"/>
  <rect x="636" y="430" width="70" height="182" rx="18" fill="#06B6D4"/>
  <rect x="742" y="374" width="70" height="238" rx="18" fill="#111827"/>
  <rect x="848" y="454" width="70" height="158" rx="18" fill="#7C3AED"/>
  <rect x="424" y="362" width="222" height="22" rx="11" fill="#111827"/>
  <rect x="424" y="404" width="164" height="16" rx="8" fill="#CBD5E1"/>
</svg>
