<svg width="1200" height="820" viewBox="0 0 1200 820" fill="none" xmlns="http://www.w3.org/2000/svg">
  <rect width="1200" height="820" rx="64" fill="#F8FAFC"/>
  <circle cx="980" cy="120" r="260" fill="#EDE9FE"/>
  <circle cx="160" cy="700" r="240" fill="#CFFAFE"/>
  <rect x="96" y="92" width="1008" height="636" rx="44" fill="white" stroke="#E5E7EB" stroke-width="2"/>
  <rect x="132" y="128" width="180" height="564" rx="28" fill="#111827"/>
  <circle cx="178" cy="178" r="18" fill="white" fill-opacity=".9"/>
  <rect x="132" y="244" width="180" height="42" rx="21" fill="white" fill-opacity=".16"/>
  <rect x="154" y="324" width="124" height="14" rx="7" fill="white" fill-opacity=".38"/>
  <rect x="154" y="374" width="116" height="14" rx="7" fill="white" fill-opacity=".28"/>
  <rect x="154" y="424" width="132" height="14" rx="7" fill="white" fill-opacity=".28"/>
  <rect x="354" y="136" width="306" height="142" rx="30" fill="#F3F4F6"/>
  <rect x="694" y="136" width="374" height="142" rx="30" fill="#F5F3FF"/>
  <rect x="354" y="318" width="714" height="86" rx="28" fill="#F9FAFB" stroke="#E5E7EB"/>
  <rect x="354" y="430" width="714" height="86" rx="28" fill="#F9FAFB" stroke="#E5E7EB"/>
  <rect x="354" y="542" width="714" height="86" rx="28" fill="#F9FAFB" stroke="#E5E7EB"/>
  <rect x="390" y="174" width="138" height="18" rx="9" fill="#111827"/>
  <rect x="390" y="218" width="220" height="20" rx="10" fill="#7C3AED" fill-opacity=".22"/>
  <rect x="730" y="174" width="166" height="18" rx="9" fill="#111827"/>
  <rect x="730" y="218" width="286" height="20" rx="10" fill="#06B6D4" fill-opacity=".24"/>
  <circle cx="404" cy="361" r="18" fill="#7C3AED"/>
  <circle cx="404" cy="473" r="18" fill="#06B6D4"/>
  <circle cx="404" cy="585" r="18" fill="#111827"/>
  <rect x="446" y="348" width="220" height="18" rx="9" fill="#111827" fill-opacity=".9"/>
  <rect x="446" y="460" width="260" height="18" rx="9" fill="#111827" fill-opacity=".9"/>
  <rect x="446" y="572" width="190" height="18" rx="9" fill="#111827" fill-opacity=".9"/>
  <rect x="870" y="344" width="138" height="28" rx="14" fill="#EEF2FF"/>
  <rect x="870" y="456" width="138" height="28" rx="14" fill="#ECFEFF"/>
  <rect x="870" y="568" width="138" height="28" rx="14" fill="#F3F4F6"/>
</svg>
