<svg width="1200" height="820" viewBox="0 0 1200 820" fill="none" xmlns="http://www.w3.org/2000/svg">
  <rect width="1200" height="820" rx="64" fill="#FAFAF9"/>
  <circle cx="980" cy="180" r="260" fill="#EDE9FE"/>
  <rect x="108" y="104" width="984" height="612" rx="52" fill="#FFFFFF" stroke="#E5E7EB" stroke-width="2"/>
  <rect x="164" y="160" width="872" height="260" rx="42" fill="#111827"/>
  <rect x="218" y="224" width="318" height="34" rx="17" fill="#FFFFFF" fill-opacity=".92"/>
  <rect x="218" y="298" width="460" height="22" rx="11" fill="#FFFFFF" fill-opacity=".35"/>
  <rect x="218" y="342" width="180" height="52" rx="26" fill="#FFFFFF"/>
  <rect x="164" y="470" width="264" height="170" rx="32" fill="#F8FAFC" stroke="#E5E7EB"/>
  <rect x="468" y="470" width="264" height="170" rx="32" fill="#F8FAFC" stroke="#E5E7EB"/>
  <rect x="772" y="470" width="264" height="170" rx="32" fill="#F8FAFC" stroke="#E5E7EB"/>
  <rect x="198" y="600" width="144" height="14" rx="7" fill="#111827" fill-opacity=".8"/>
  <rect x="502" y="600" width="144" height="14" rx="7" fill="#111827" fill-opacity=".8"/>
  <rect x="806" y="600" width="144" height="14" rx="7" fill="#111827" fill-opacity=".8"/>
</svg>
